<svg width="40" height="40" viewBox="0 0 40 40" fill="none" xmlns="http://www.w3.org/2000/svg">
<path d="M19.962 0C16.083 0.00737006 12.2898 1.14262 9.04447 3.26748C5.79916 5.39233 3.2418 8.41508 1.68389 11.9675C0.125985 15.52 -0.365236 19.4488 0.270064 23.2755C0.905365 27.1022 2.63977 30.6615 5.26201 33.52C7.13486 35.5501 9.4079 37.1703 11.9379 38.2784C14.4679 39.3866 17.2 39.9587 19.962 39.9587C22.724 39.9587 25.4561 39.3866 27.9861 38.2784C30.5161 37.1703 32.7892 35.5501 34.662 33.52C37.2843 30.6615 39.0187 27.1022 39.654 23.2755C40.2893 19.4488 39.798 15.52 38.2401 11.9675C36.6822 8.41508 34.1249 5.39233 30.8796 3.26748C27.6342 1.14262 23.8411 0.00737006 19.962 0ZM19.962 36C15.8189 35.9937 11.8398 34.3806 8.86201 31.5C9.7661 29.2991 11.3041 27.4166 13.2805 26.0918C15.257 24.767 17.5826 24.0596 19.962 24.0596C22.3414 24.0596 24.6671 24.767 26.6435 26.0918C28.6199 27.4166 30.1579 29.2991 31.062 31.5C28.0842 34.3806 24.1051 35.9937 19.962 36ZM15.962 16C15.962 15.2089 16.1966 14.4355 16.6361 13.7777C17.0757 13.1199 17.7004 12.6072 18.4313 12.3045C19.1622 12.0017 19.9664 11.9225 20.7424 12.0769C21.5183 12.2312 22.231 12.6122 22.7904 13.1716C23.3498 13.731 23.7308 14.4437 23.8852 15.2196C24.0395 15.9956 23.9603 16.7998 23.6575 17.5307C23.3548 18.2616 22.8421 18.8864 22.1843 19.3259C21.5265 19.7654 20.7531 20 19.962 20C18.9011 20 17.8837 19.5786 17.1336 18.8284C16.3834 18.0783 15.962 17.0609 15.962 16ZM33.782 28C31.9951 24.9435 29.2448 22.5661 25.962 21.24C26.9803 20.0853 27.6439 18.6613 27.873 17.1389C28.102 15.6164 27.887 14.0602 27.2535 12.657C26.6201 11.2538 25.5952 10.0631 24.3018 9.22793C23.0085 8.39275 21.5016 7.9485 19.962 7.9485C18.4224 7.9485 16.9156 8.39275 15.6222 9.22793C14.3288 10.0631 13.304 11.2538 12.6705 12.657C12.0371 14.0602 11.822 15.6164 12.0511 17.1389C12.2802 18.6613 12.9437 20.0853 13.962 21.24C10.6792 22.5661 7.92895 24.9435 6.14201 28C4.7179 25.5742 3.96545 22.8129 3.96201 20C3.96201 15.7565 5.64772 11.6869 8.6483 8.68629C11.6489 5.68571 15.7185 4 19.962 4C24.2055 4 28.2751 5.68571 31.2757 8.68629C34.2763 11.6869 35.962 15.7565 35.962 20C35.9586 22.8129 35.2061 25.5742 33.782 28Z" fill="#71C6DD"/>
</svg>
