<svg width="30" height="30" viewBox="0 0 30 30" fill="none" xmlns="http://www.w3.org/2000/svg">
<rect width="30" height="30" rx="3" fill="#51546E"/>
<path d="M24.1667 8.07692H20V7.30769C20 6.69565 19.7366 6.10868 19.2678 5.67591C18.7989 5.24313 18.163 5 17.5 5H12.5C11.837 5 11.2011 5.24313 10.7322 5.67591C10.2634 6.10868 10 6.69565 10 7.30769V8.07692H5.83333C5.61232 8.07692 5.40036 8.15797 5.24408 8.30223C5.0878 8.44648 5 8.64214 5 8.84615C5 9.05017 5.0878 9.24582 5.24408 9.39008C5.40036 9.53434 5.61232 9.61538 5.83333 9.61538H6.66667V23.4615C6.66667 23.8696 6.84226 24.2609 7.15482 24.5494C7.46738 24.8379 7.89131 25 8.33333 25H21.6667C22.1087 25 22.5326 24.8379 22.8452 24.5494C23.1577 24.2609 23.3333 23.8696 23.3333 23.4615V9.61538H24.1667C24.3877 9.61538 24.5996 9.53434 24.7559 9.39008C24.9122 9.24582 25 9.05017 25 8.84615C25 8.64214 24.9122 8.44648 24.7559 8.30223C24.5996 8.15797 24.3877 8.07692 24.1667 8.07692ZM11.6667 7.30769C11.6667 7.10368 11.7545 6.90802 11.9107 6.76376C12.067 6.61951 12.279 6.53846 12.5 6.53846H17.5C17.721 6.53846 17.933 6.61951 18.0893 6.76376C18.2455 6.90802 18.3333 7.10368 18.3333 7.30769V8.07692H11.6667V7.30769ZM21.6667 23.4615H8.33333V9.61538H21.6667V23.4615ZM13.3333 13.4615V19.6154C13.3333 19.8194 13.2455 20.0151 13.0893 20.1593C12.933 20.3036 12.721 20.3846 12.5 20.3846C12.279 20.3846 12.067 20.3036 11.9107 20.1593C11.7545 20.0151 11.6667 19.8194 11.6667 19.6154V13.4615C11.6667 13.2575 11.7545 13.0619 11.9107 12.9176C12.067 12.7734 12.279 12.6923 12.5 12.6923C12.721 12.6923 12.933 12.7734 13.0893 12.9176C13.2455 13.0619 13.3333 13.2575 13.3333 13.4615ZM18.3333 13.4615V19.6154C18.3333 19.8194 18.2455 20.0151 18.0893 20.1593C17.933 20.3036 17.721 20.3846 17.5 20.3846C17.279 20.3846 17.067 20.3036 16.9107 20.1593C16.7545 20.0151 16.6667 19.8194 16.6667 19.6154V13.4615C16.6667 13.2575 16.7545 13.0619 16.9107 12.9176C17.067 12.7734 17.279 12.6923 17.5 12.6923C17.721 12.6923 17.933 12.7734 18.0893 12.9176C18.2455 13.0619 18.3333 13.2575 18.3333 13.4615Z" fill="white"/>
</svg>
