<svg width="30" height="30" viewBox="0 0 30 30" fill="none" xmlns="http://www.w3.org/2000/svg">
<rect width="30" height="30" rx="3" fill="#51546E"/>
<path d="M25 10.2396C25.0007 10.108 24.9755 9.97758 24.9258 9.85575C24.876 9.73392 24.8027 9.62311 24.71 9.52968L20.47 5.29C20.3765 5.19732 20.2657 5.124 20.1439 5.07424C20.0221 5.02448 19.8916 4.99926 19.76 5.00002C19.6284 4.99926 19.4979 5.02448 19.3761 5.07424C19.2542 5.124 19.1434 5.19732 19.05 5.29L16.22 8.11978L5.29002 19.049C5.19733 19.1424 5.12401 19.2532 5.07425 19.375C5.02448 19.4969 4.99926 19.6273 5.00002 19.7589V23.9986C5.00002 24.2638 5.10537 24.5181 5.29291 24.7057C5.48045 24.8932 5.7348 24.9985 6.00001 24.9985H10.24C10.3799 25.0061 10.5199 24.9843 10.6508 24.9343C10.7818 24.8843 10.9007 24.8074 11 24.7085L21.87 13.7794L24.71 10.9996C24.8013 10.9027 24.8756 10.7911 24.93 10.6696C24.9396 10.5899 24.9396 10.5093 24.93 10.4296C24.9347 10.3831 24.9347 10.3362 24.93 10.2896L25 10.2396ZM9.83001 22.9987H7.00001V20.1689L16.93 10.2396L19.76 13.0694L9.83001 22.9987ZM21.17 11.6595L18.34 8.82973L19.76 7.41984L22.58 10.2396L21.17 11.6595Z" fill="white"/>
</svg>
