<svg width="40" height="34" viewBox="0 0 40 34" fill="none" xmlns="http://www.w3.org/2000/svg">
<path d="M31.7347 30.2949V32.4744C31.7347 33.4333 30.9087 34 29.9524 34H1.565C0.608611 34 0 33.4769 0 32.4744V10.941C0 9.98205 0.608611 9.11026 1.565 9.11026H6.65125C7.60764 9.11026 8.39014 9.89487 8.39014 10.8538C8.39014 11.8128 7.60764 12.5974 6.65125 12.5974H3.47778V30.5128H28.2569V30.2949C28.2569 29.3359 29.0394 28.5513 29.9958 28.5513C30.9522 28.5513 31.7347 29.3359 31.7347 30.2949ZM39.4728 14.0359L28.6917 25.0641C28.17 25.5872 27.431 25.7179 26.7789 25.4564C26.0833 25.1513 25.6486 24.541 25.6486 23.8V19.0487C22.1708 18.9615 13.8242 19.3103 10.7811 24.6718C10.4768 25.2385 9.86819 25.5872 9.25958 25.5872C9.12916 25.5872 8.95528 25.5872 8.82486 25.5436C8.04236 25.3256 7.52069 24.6282 7.52069 23.8436C7.52069 23.5821 7.52069 16.8256 12.5635 11.8128C15.7369 8.54359 19.9972 6.8 25.6486 6.49487V1.74359C25.6486 1.04615 26.0833 0.392308 26.7354 0.130769C27.431 -0.130769 28.17 -1.55889e-07 28.6917 0.523077L39.5162 11.5513C40.1683 12.2487 40.1683 13.3385 39.4728 14.0359ZM35.7342 12.7718L29.1264 6.05897V8.19487C29.1264 9.15385 28.3874 9.93846 27.3875 9.93846C21.9969 9.93846 17.8671 11.3769 15.0414 14.2538C13.7372 15.5615 12.8678 17 12.3026 18.3949C16.389 15.9538 21.5622 15.5179 24.7357 15.5179C26.3876 15.5179 27.4744 15.6487 27.6049 15.6487C28.4743 15.7359 29.1264 16.5205 29.1264 17.3923V19.5282L35.7342 12.7718Z" fill="black"/>
</svg>
