<svg width="32" height="35" viewBox="0 0 32 35" fill="none" xmlns="http://www.w3.org/2000/svg">
<path d="M16.235 24.4716C16.5422 24.6145 16.9065 24.5716 17.1636 24.3573L30.9633 12.929C31.1633 12.7647 31.2776 12.5147 31.2776 12.2576C31.2776 11.9933 31.1633 11.7504 30.9562 11.5861L17.1636 0.200642C16.8993 -0.0136399 16.5422 -0.063639 16.235 0.0863582C15.9279 0.229213 15.7351 0.53635 15.7351 0.879201V6.85766C-0.0860808 7.42908 -0.0217971 19.4289 0.00677384 25.243V25.9359C0.00677384 26.3359 0.271055 26.6787 0.656762 26.7787C0.728189 26.8002 0.806759 26.8073 0.878186 26.8073C1.18532 26.8073 1.47818 26.643 1.64246 26.3644C6.3138 18.136 10.1566 17.736 15.7351 17.7146V23.6788C15.7351 24.0145 15.928 24.3216 16.235 24.4716ZM1.7711 22.8502C1.84967 20.3146 2.18538 17.2932 3.57106 14.7361C5.77102 10.6647 10.0352 8.65049 16.6137 8.5862C17.0922 8.57906 17.478 8.19335 17.478 7.71479V2.72917L29.0277 12.2576L17.4851 21.8145V16.836C17.4851 16.6075 17.3922 16.3789 17.228 16.2146C17.0637 16.0503 16.8422 15.9575 16.6065 15.9575C10.4852 15.9646 6.26387 16.3289 1.7711 22.8502Z" fill="black"/>
<path d="M31.1066 34.1286V17.986C31.1066 17.5003 30.7137 17.1075 30.228 17.1075C29.7423 17.1075 29.3495 17.5003 29.3495 17.986V33.25H1.75711V30.2787C1.75711 29.793 1.36426 29.4001 0.878555 29.4001C0.39285 29.4001 0 29.793 0 30.2787V34.1215C0 34.6072 0.39285 35 0.878555 35H30.228C30.7137 35 31.1066 34.6072 31.1066 34.1286Z" fill="black"/>
</svg>
