<svg width="131" height="132" viewBox="0 0 131 132" fill="none" xmlns="http://www.w3.org/2000/svg">
<path d="M94.462 98.8558C93.8838 98.8591 93.3106 98.7483 92.7753 98.5296C92.24 98.311 91.7531 97.9888 91.3426 97.5816L76.2726 82.5116C75.4453 81.6843 74.9805 80.5622 74.9805 79.3922C74.9805 78.2221 75.4453 77.1 76.2726 76.2727C77.0999 75.4454 78.222 74.9806 79.392 74.9806C80.5621 74.9806 81.6842 75.4454 82.5115 76.2727L97.5815 91.3427C97.9933 91.7512 98.3202 92.2371 98.5432 92.7725C98.7663 93.3079 98.8811 93.8822 98.8811 94.4622C98.8811 95.0422 98.7663 95.6164 98.5432 96.1518C98.3202 96.6872 97.9933 97.1732 97.5815 97.5816C97.171 97.9888 96.6841 98.311 96.1488 98.5296C95.6135 98.7483 95.0403 98.8591 94.462 98.8558Z" fill="#A9ADCF"/>
<path d="M48.3295 0C38.7708 0 29.4268 2.83447 21.4791 8.14499C13.5313 13.4555 7.33683 21.0035 3.67888 29.8346C0.0209406 38.6656 -0.936145 48.3831 0.928659 57.7581C2.79346 67.1331 7.3964 75.7446 14.1554 82.5036C20.9144 89.2626 29.5259 93.8655 38.9009 95.7303C48.2759 97.5951 57.9933 96.638 66.8244 92.9801C75.6555 89.3222 83.2035 83.1277 88.514 75.1799C93.8245 67.2322 96.659 57.8882 96.659 48.3295C96.659 35.5117 91.5672 23.2189 82.5036 14.1554C73.4401 5.09184 61.1473 0 48.3295 0Z" fill="#71C6DD"/>
<path d="M48.3295 17.5744C40.1727 17.5744 32.35 20.8146 26.5823 26.5823C20.8146 32.35 17.5743 40.1727 17.5743 48.3295C17.5743 56.4862 20.8146 64.3089 26.5823 70.0766C32.35 75.8443 40.1727 79.0846 48.3295 79.0846C56.4862 79.0846 64.3089 75.8443 70.0766 70.0766C75.8443 64.3089 79.0846 56.4862 79.0846 48.3295C79.0846 40.1727 75.8443 32.35 70.0766 26.5823C64.3089 20.8146 56.4862 17.5744 48.3295 17.5744Z" fill="#3F4156"/>
<path d="M129.699 116.342L101.053 87.8718C100.644 87.46 100.158 87.1331 99.6229 86.9101C99.0875 86.687 98.5132 86.5722 97.9332 86.5722C97.3532 86.5722 96.779 86.687 96.2436 86.9101C95.7082 87.1331 95.2222 87.46 94.8138 87.8718L86.8614 95.8242C86.4496 96.2326 86.1227 96.7186 85.8997 97.254C85.6766 97.7894 85.5618 98.3636 85.5618 98.9436C85.5618 99.5236 85.6766 100.098 85.8997 100.633C86.1227 101.169 86.4496 101.655 86.8614 102.063L115.42 130.621C115.828 131.033 116.314 131.36 116.849 131.583C117.385 131.806 117.959 131.921 118.539 131.921C119.119 131.921 119.693 131.806 120.229 131.583C120.764 131.36 121.25 131.033 121.659 130.621L129.611 122.669C130.042 122.265 130.387 121.778 130.626 121.238C130.864 120.698 130.991 120.115 131 119.524C131.008 118.934 130.897 118.348 130.673 117.801C130.45 117.254 130.118 116.758 129.699 116.342Z" fill="#A9ADCF"/>
</svg>
